<?xml version="1.0" encoding="UTF-8"?>
<svg xmlns="http://www.w3.org/2000/svg" width="390" height="844" viewBox="0 0 390 844">
  <rect width="390" height="844" fill="#F8FAFC"/>
  <rect x="0" y="0" width="70" height="844" fill="#FFFFFF"/>
  <line x1="70" y1="0" x2="70" y2="844" stroke="#E2E8F0"/>
  <text x="20" y="36" font-family="system-ui,Segoe UI,Arial" font-size="14" font-weight="700" fill="#0F766E">USN Lab Hub</text>
  <g><rect x="12" y="60" width="46" height="28" rx="6" fill="transparent"/>
      <text x="20" y="80" font-family="system-ui,Segoe UI,Arial" font-size="13" fill="#0F172A">首页</text>
    </g>
<g><rect x="12" y="96" width="46" height="28" rx="6" fill="transparent"/>
      <text x="20" y="116" font-family="system-ui,Segoe UI,Arial" font-size="13" fill="#0F172A">考勤</text>
    </g>
<g><rect x="12" y="132" width="46" height="28" rx="6" fill="transparent"/>
      <text x="20" y="152" font-family="system-ui,Segoe UI,Arial" font-size="13" fill="#0F172A">IoT · 设备</text>
    </g>
<g><rect x="12" y="168" width="46" height="28" rx="6" fill="transparent"/>
      <text x="20" y="188" font-family="system-ui,Segoe UI,Arial" font-size="13" fill="#0F172A">IoT · 项目</text>
    </g>
<g><rect x="12" y="204" width="46" height="28" rx="6" fill="transparent"/>
      <text x="20" y="224" font-family="system-ui,Segoe UI,Arial" font-size="13" fill="#0F172A">IoT · 告警</text>
    </g>
<g><rect x="12" y="240" width="46" height="28" rx="6" fill="transparent"/>
      <text x="20" y="260" font-family="system-ui,Segoe UI,Arial" font-size="13" fill="#0F172A">IoT · 命令</text>
    </g>
<g><rect x="12" y="276" width="46" height="28" rx="6" fill="transparent"/>
      <text x="20" y="296" font-family="system-ui,Segoe UI,Arial" font-size="13" fill="#0F172A">IoT · 日志</text>
    </g>
  <rect x="0" y="0" width="390" height="56" fill="#FFFFFF"/>
  <line x1="0" y1="56" x2="390" y2="56" stroke="#E2E8F0"/>
  <text x="94" y="36" font-family="system-ui,Segoe UI,Arial" font-size="15" font-weight="600" fill="#0F172A">个人工作台</text>
  <rect x="258" y="14" width="108" height="28" rx="6" fill="#2563EB"/>
  <text x="312" y="32" font-family="system-ui,Segoe UI,Arial" font-size="12" font-weight="600" fill="#fff" text-anchor="middle">教师 · TEACHER</text>
  <g><rect x="94" y="80" width="272" height="113.33333333333333" rx="10" fill="#FFFFFF" stroke="#E2E8F0"/>
      <text x="108" y="102" font-family="system-ui,Segoe UI,Arial" font-size="13" font-weight="600" fill="#0F172A">今日考勤</text>
      <line x1="108" y1="112" x2="352" y2="112" stroke="#E2E8F0"/>
      <text x="108" y="136" font-family="system-ui,Segoe UI,Arial" font-size="12" fill="#475569">09:01 签到 · 本周 12.5h</text>
    </g>
<g><rect x="94" y="205.33333333333331" width="272" height="113.33333333333333" rx="10" fill="#FFFFFF" stroke="#E2E8F0"/>
      <text x="108" y="227.33333333333331" font-family="system-ui,Segoe UI,Arial" font-size="13" font-weight="600" fill="#0F172A">进行中项目</text>
      <line x1="108" y1="237.33333333333331" x2="352" y2="237.33333333333331" stroke="#E2E8F0"/>
      <text x="108" y="261.3333333333333" font-family="system-ui,Segoe UI,Arial" font-size="12" fill="#475569">IoT 设备 24 · 项目 6</text>
    </g>
<g><rect x="94" y="330.66666666666663" width="272" height="113.33333333333333" rx="10" fill="#FFFFFF" stroke="#E2E8F0"/>
      <text x="108" y="352.66666666666663" font-family="system-ui,Segoe UI,Arial" font-size="13" font-weight="600" fill="#0F172A">本周任务</text>
      <line x1="108" y1="362.66666666666663" x2="352" y2="362.66666666666663" stroke="#E2E8F0"/>
      <text x="108" y="386.66666666666663" font-family="system-ui,Segoe UI,Arial" font-size="12" fill="#475569">完成 7 / 进行 3 / 待办 5</text>
    </g>
<g><rect x="94" y="456" width="272" height="113.33333333333333" rx="10" fill="#FFFFFF" stroke="#E2E8F0"/>
      <text x="108" y="478" font-family="system-ui,Segoe UI,Arial" font-size="13" font-weight="600" fill="#0F172A">学习</text>
      <line x1="108" y1="488" x2="352" y2="488" stroke="#E2E8F0"/>
      <text x="108" y="512" font-family="system-ui,Segoe UI,Arial" font-size="12" fill="#475569">Vue3 / Node / 协作</text>
    </g>
<g><rect x="94" y="581.3333333333333" width="272" height="113.33333333333333" rx="10" fill="#FFFFFF" stroke="#E2E8F0"/>
      <text x="108" y="603.3333333333333" font-family="system-ui,Segoe UI,Arial" font-size="13" font-weight="600" fill="#0F172A">通知</text>
      <line x1="108" y1="613.3333333333333" x2="352" y2="613.3333333333333" stroke="#E2E8F0"/>
      <text x="108" y="637.3333333333333" font-family="system-ui,Segoe UI,Arial" font-size="12" fill="#475569">3 条新提醒</text>
    </g>
<g><rect x="94" y="706.6666666666666" width="272" height="113.33333333333333" rx="10" fill="#FFFFFF" stroke="#E2E8F0"/>
      <text x="108" y="728.6666666666666" font-family="system-ui,Segoe UI,Arial" font-size="13" font-weight="600" fill="#0F172A">设备提醒</text>
      <line x1="108" y1="738.6666666666666" x2="352" y2="738.6666666666666" stroke="#E2E8F0"/>
      <text x="108" y="762.6666666666666" font-family="system-ui,Segoe UI,Arial" font-size="12" fill="#475569">2 台设备异常</text>
    </g>
  <text x="374" y="832" font-family="system-ui,Segoe UI,Arial" font-size="10" fill="#475569" text-anchor="end">M01-W02 · 390×844 · teacher/workbench</text>
</svg>